<?xml version="1.0" standalone="no"?>
<!DOCTYPE svg PUBLIC "-//W3C//DTD SVG 20010904//EN"
 "http://www.w3.org/TR/2001/REC-SVG-20010904/DTD/svg10.dtd">
<svg version="1.0" xmlns="http://www.w3.org/2000/svg"
 width="300.000000pt" height="300.000000pt" viewBox="0 0 300.000000 300.000000"
 preserveAspectRatio="xMidYMid meet">
<metadata>
Created by potrace 1.11, written by Peter Selinger 2001-2013
</metadata>
<g transform="translate(0.000000,300.000000) scale(0.100000,-0.100000)"
fill="#000000" stroke="none">
<path d="M747 2783 c-34 -59 -717 -1244 -725 -1260 -10 -19 30 -94 357 -660
l369 -638 747 0 748 0 364 630 c201 347 367 635 369 640 3 6 -162 299 -365
650 l-369 640 -745 3 c-410 1 -748 -1 -750 -5z m924 -739 c102 -47 151 -135
151 -269 -1 -88 -22 -144 -75 -194 l-36 -34 57 -23 c72 -29 135 -95 151 -158
37 -150 -17 -303 -132 -371 -80 -46 -148 -55 -444 -55 l-273 0 0 566 0 565
278 -3 c257 -3 280 -5 323 -24z"/>
<path d="M1368 1844 c-5 -4 -8 -54 -8 -111 l0 -103 55 0 c61 0 108 19 125 49
5 11 10 38 10 61 0 33 -6 48 -29 71 -16 16 -40 29 -53 29 -13 0 -39 3 -58 6
-19 3 -38 2 -42 -2z"/>
<path d="M1368 1404 c-5 -4 -8 -58 -8 -121 l0 -113 73 0 c137 0 197 34 197
112 0 53 -21 85 -67 104 -39 17 -184 30 -195 18z"/>
</g>
</svg>
