<svg width="500" height="500" viewBox="0 0 500 500" fill="none" xmlns="http://www.w3.org/2000/svg">
<circle cx="250" cy="250" r="250" fill="#222020"/>
<path d="M235.6 336C223.6 336 212.733 334.267 203 330.8C193.4 327.2 185.2 322.133 178.4 315.6C171.733 308.933 166.533 300.933 162.8 291.6C159.2 282.133 157.4 271.533 157.4 259.8C157.4 247.667 159.333 236.6 163.2 226.6C167.2 216.467 172.733 207.8 179.8 200.6C186.867 193.4 195.333 187.867 205.2 184C215.067 180 226 178 238 178C246.267 178 254.133 179.133 261.6 181.4C269.067 183.667 277.133 187.333 285.8 192.4L289.6 180H296.8V230.6H286.8C284.133 218.067 278.733 208.333 270.6 201.4C262.6 194.467 252.533 191 240.4 191C225.067 191 213.133 196.933 204.6 208.8C196.2 220.533 192 237 192 258.2C192 279 196.133 294.933 204.4 306C212.667 317.067 224.667 322.6 240.4 322.6C251.733 322.6 260.533 319.733 266.8 314C273.2 308.133 276.4 300.067 276.4 289.8C276.4 283.667 274.8 279.2 271.6 276.4C268.4 273.467 263 271.667 255.4 271V263H320.2V271C313.667 271 309.133 272.467 306.6 275.4C304.067 278.2 302.8 283.333 302.8 290.8V317.4C299.867 317.4 297.4 317.533 295.4 317.8C293.4 317.933 291.4 318.333 289.4 319C287.533 319.533 285.4 320.467 283 321.8C280.6 323.133 277.6 324.867 274 327C263.733 333 250.933 336 235.6 336ZM332.042 321.2C332.042 316.933 333.442 313.333 336.242 310.4C339.176 307.333 342.776 305.8 347.042 305.8C351.442 305.8 355.109 307.333 358.042 310.4C360.976 313.333 362.442 316.933 362.442 321.2C362.442 325.333 360.976 328.867 358.042 331.8C355.109 334.6 351.442 336 347.042 336C342.776 336 339.176 334.6 336.242 331.8C333.442 328.867 332.042 325.333 332.042 321.2Z" fill="white"/>
</svg>
